<?xml version="1.0" encoding="UTF-8" standalone="no"?>
<svg
   xmlns:dc="http://purl.org/dc/elements/1.1/"
   xmlns:cc="http://creativecommons.org/ns#"
   xmlns:rdf="http://www.w3.org/1999/02/22-rdf-syntax-ns#"
   xmlns:svg="http://www.w3.org/2000/svg"
   xmlns="http://www.w3.org/2000/svg"
   xmlns:sodipodi="http://sodipodi.sourceforge.net/DTD/sodipodi-0.dtd"
   xmlns:inkscape="http://www.inkscape.org/namespaces/inkscape"
   width="64"
   height="64"
   version="1.1"
   xml:space="preserve"
   style="clip-rule:evenodd;fill-rule:evenodd;stroke-linejoin:round;stroke-miterlimit:1.41420996"
   id="svg4352"
   inkscape:version="0.91 r13725"
   sodipodi:docname="icon_shield_black.svg"><metadata
     id="metadata4366"><rdf:RDF><cc:Work
         rdf:about=""><dc:format>image/svg+xml</dc:format><dc:type
           rdf:resource="http://purl.org/dc/dcmitype/StillImage" /><dc:title></dc:title></cc:Work></rdf:RDF></metadata><defs
     id="defs4364" /><sodipodi:namedview
     pagecolor="#ffffff"
     bordercolor="#666666"
     borderopacity="1"
     objecttolerance="10"
     gridtolerance="10"
     guidetolerance="10"
     inkscape:pageopacity="0"
     inkscape:pageshadow="2"
     inkscape:window-width="1844"
     inkscape:window-height="1003"
     id="namedview4362"
     showgrid="false"
     showguides="true"
     inkscape:guide-bbox="true"
     fit-margin-top="0"
     fit-margin-left="0"
     fit-margin-right="0"
     fit-margin-bottom="0"
     units="px"
     inkscape:zoom="3.6203867"
     inkscape:cx="92.454828"
     inkscape:cy="72.224583"
     inkscape:window-x="1663"
     inkscape:window-y="119"
     inkscape:window-maximized="0"
     inkscape:current-layer="g4354"><sodipodi:guide
       position="10308.201,2894586.4"
       orientation="0,1"
       id="guide4368" /></sodipodi:namedview><g
     id="g4354"
     transform="translate(1.9615886,-1831.5659)"><path
       style="color:#000000;font-style:normal;font-variant:normal;font-weight:normal;font-stretch:normal;font-size:medium;line-height:normal;font-family:sans-serif;text-indent:0;text-align:start;text-decoration:none;text-decoration-line:none;text-decoration-style:solid;text-decoration-color:#000000;letter-spacing:normal;word-spacing:normal;text-transform:none;direction:ltr;block-progression:tb;writing-mode:lr-tb;baseline-shift:baseline;text-anchor:start;white-space:normal;clip-rule:nonzero;display:inline;overflow:visible;visibility:visible;opacity:1;isolation:auto;mix-blend-mode:normal;color-interpolation:sRGB;color-interpolation-filters:linearRGB;solid-color:#000000;solid-opacity:1;fill:#000000;fill-opacity:1;fill-rule:nonzero;stroke:none;stroke-width:6;stroke-linecap:butt;stroke-linejoin:miter;stroke-miterlimit:1.41420996;stroke-dasharray:none;stroke-dashoffset:0;stroke-opacity:1;color-rendering:auto;image-rendering:auto;shape-rendering:auto;text-rendering:auto;enable-background:accumulate"
       d="m 30.224217,1832.4785 a 1.8663025,1.8663025 0 0 0 -1.21006,0.441 c -4.870739,4.1214 -12.875535,6.9518 -21.9280764,6.9518 a 1.8663025,1.8663025 0 0 0 -1.8661159,1.8661 l 0,10.8335 c 0,23.7492 10.3716613,36.5382 24.2971693,41.4785 l 0.07533,0.027 a 1.8663025,1.8663025 0 0 0 1.245292,0 c 13.972333,-4.9055 24.382214,-17.7577 24.382214,-41.5089 l 0,-10.8335 a 1.8663025,1.8663025 0 0 0 -1.866116,-1.8661 c -9.051895,0 -17.057338,-2.8304 -21.928077,-6.9518 a 1.8663025,1.8663025 0 0 0 -1.201555,-0.441 z m -0.0049,4.1052 c 5.335265,4.0333 12.829669,6.5439 21.268368,6.8789 l 0,9.1083 c 0,22.3176 -8.944749,33.141 -21.270806,37.722 -12.327697,-4.5982 -21.2647305,-15.3626 -21.2647305,-37.722 l 0,-9.1083 c 8.4387405,-0.335 15.9319275,-2.8459 21.2671605,-6.8789 z"
       id="path4356"
       inkscape:connector-curvature="0" /><g
       id="g4374"
       transform="matrix(0.62203863,0,0,0.62203863,6.8951102,1834.2195)"
       style="fill:#000000;fill-opacity:1;stroke:none"><path
         inkscape:connector-curvature="0"
         style="opacity:1;fill:#000000;fill-opacity:1;stroke:none;stroke-width:1;stroke-linecap:round;stroke-linejoin:miter;stroke-miterlimit:4;stroke-dasharray:none;stroke-dashoffset:6.49936485;stroke-opacity:1"
         d="m 38.207031,31.830078 a 8,8 0 0 0 -8,8 8,8 0 0 0 5,7.410156 l 0,9.621094 c 0,2.080142 1.338,3.753906 3,3.753906 1.662,0 3,-1.673764 3,-3.753906 l 0,-9.61914 a 8,8 0 0 0 5,-7.41211 8,8 0 0 0 -8,-8 z"
         transform="translate(-0.71057083,0)"
         id="path4370" /></g></g></svg>