<svg width="11" height="11" viewBox="0 0 11 11" fill="none" xmlns="http://www.w3.org/2000/svg">
<path d="M2.47287 11H0.170543V3.63813H2.43023V11H2.47287ZM1.32171 2.61089C0.596899 2.61089 0 2.01167 0 1.28405C0 0.55642 0.596899 0 1.32171 0C2.04651 0 2.64341 0.599222 2.64341 1.32685C2.64341 2.05447 2.04651 2.61089 1.32171 2.61089ZM11 11H8.74031V7.40467C8.74031 6.54864 8.74031 5.4358 7.54651 5.4358C6.35271 5.4358 6.18217 6.37743 6.18217 7.31907V10.9572H3.87984V3.63813H6.05426V4.62257H6.0969C6.39535 4.02335 7.16279 3.42412 8.27132 3.42412C10.5736 3.42412 11 4.96498 11 6.93385V11Z" fill="white"/>
</svg>
