<svg width="11" height="9" viewBox="0 0 11 9" fill="none" xmlns="http://www.w3.org/2000/svg">
<path d="M3.45928 9C7.61024 9 9.88064 5.53713 9.88064 2.53415C9.88064 2.43579 9.88064 2.33788 9.87404 2.24041C10.3157 1.91872 10.697 1.5204 11 1.06411C10.5881 1.24789 10.1512 1.36841 9.70376 1.42165C10.1749 1.13765 10.5275 0.690966 10.696 0.164726C10.2529 0.429427 9.76828 0.615976 9.26288 0.716321C8.92261 0.351995 8.47258 0.110748 7.98242 0.0299117C7.49227 -0.0509248 6.98932 0.0331562 6.5514 0.269143C6.11349 0.505131 5.76502 0.879868 5.55992 1.33537C5.35483 1.79086 5.30454 2.30173 5.41684 2.7889C4.51957 2.74361 3.64179 2.50882 2.84048 2.09978C2.03917 1.69074 1.33225 1.11659 0.7656 0.414605C0.477 0.914879 0.388608 1.5071 0.518421 2.07069C0.648233 2.63429 0.98649 3.12687 1.46432 3.44816C1.10517 3.43744 0.753843 3.33988 0.44 3.16372C0.44 3.17303 0.44 3.18277 0.44 3.19252C0.440143 3.71719 0.620515 4.22565 0.950524 4.63167C1.28053 5.0377 1.73986 5.31628 2.2506 5.42017C1.91834 5.51141 1.56974 5.52475 1.23156 5.45916C1.37577 5.9107 1.65654 6.30556 2.03459 6.58852C2.41264 6.87148 2.86907 7.02839 3.34004 7.0373C2.54088 7.66972 1.55367 8.01303 0.53724 8.012C0.357678 8.01165 0.17829 8.00071 0 7.97922C1.03208 8.64613 2.23296 8.99987 3.45928 8.99823" fill="white"/>
</svg>
